<?xml version="1.0" encoding="UTF-8" standalone="no"?>
<svg xmlns:dc="http://purl.org/dc/elements/1.1/" 
  xmlns:cc="http://creativecommons.org/ns#" 
  xmlns:rdf="http://www.w3.org/1999/02/22-rdf-syntax-ns#" 
  xmlns:svg="http://www.w3.org/2000/svg" 
  xmlns="http://www.w3.org/2000/svg" height="256" width="256" xml:space="preserve" viewBox="0 0 256 256" y="0px" x="0px" version="1.1">
  <g transform="translate(105.2213,-347.66314)">
    <path style="fill:#0046f4" d="m -70.6426,596.34469 c -2,0 -3.8,-0.5 -5.6,-1.4 -1.8,-0.9 -3.2,-2.2 -4.3,-3.9 -1.1,-1.7 -1.8,-3.5 -2.2,-5.4 -0.4,-1.9 -0.6,-3.8 -0.6,-5.8 v -6.5 c 0,-2 0.2,-3.9 0.6,-5.8 0.4,-1.9 1.2,-3.7 2.2,-5.4 1.1,-1.7 2.5,-3 4.3,-3.9 1.8,-0.9 3.6,-1.4 5.6,-1.4 1.5,0 3,0.3 4.5,0.9 1.4,0.6 2.7,1.5 3.7,2.6 0.8,0.9 1.5,1.9 2,3 v -20.7 h 4.5 v 52.9 h -4.5 v -5.9 c -0.5,1.1 -1.2,2 -2,3 -1,1.2 -2.2,2 -3.7,2.6 -1.4,0.8 -2.9,1.1 -4.5,1.1 z m 1.2,-4 c 1.4,0 2.8,-0.4 4.1,-1.1 1.3,-0.7 2.3,-1.7 3,-3 0.7,-1.2 1.2,-2.6 1.5,-4 0.3,-1.4 0.4,-2.8 0.4,-4.3 v -6.5 c 0,-1.4 -0.1,-2.9 -0.4,-4.3 -0.3,-1.4 -0.8,-2.7 -1.5,-4 -0.7,-1.2 -1.7,-2.2 -3,-3 -1.3,-0.7 -2.6,-1.1 -4.1,-1.1 -1.4,0 -2.8,0.3 -4.1,1 -1.3,0.7 -2.4,1.7 -3.2,3 -0.8,1.3 -1.3,2.6 -1.7,4.1 -0.3,1.4 -0.5,2.9 -0.5,4.3 v 6.5 c 0,1.4 0.2,2.9 0.5,4.3 0.3,1.4 0.9,2.8 1.7,4.1 0.8,1.3 1.8,2.3 3.2,3 1.3,0.6 2.6,1 4.1,1 z" class="st0" id="s" />
    <path style="fill:#0046f4" d="m -33.5426,596.34469 c -1.9,0 -3.8,-0.3 -5.7,-0.8 -1.8,-0.5 -3.5,-1.5 -4.9,-2.9 -1.4,-1.4 -2.4,-3 -2.9,-4.8 l 4.2,-1.3 c 0.4,1.2 1.1,2.3 2,3.3 1,0.9 2.1,1.6 3.3,1.9 1.3,0.4 2.6,0.5 3.9,0.5 1.1,0 2.1,-0.1 3.1,-0.3 1,-0.2 2,-0.5 2.9,-1 0.9,-0.5 1.7,-1.2 2.3,-2.1 0.6,-0.9 0.9,-1.9 0.9,-3 0,-1.8 -0.7,-3.3 -2.2,-4.5 -1.5,-1.2 -3.1,-2 -4.9,-2.2 -1.8,-0.2 -3.6,-0.5 -5.4,-0.8 -1.8,-0.3 -3.4,-0.9 -5,-1.9 -1.5,-1 -2.7,-2.3 -3.6,-3.9 -0.9,-1.6 -1.3,-3.3 -1.3,-5.1 0,-1.6 0.4,-3.2 1.2,-4.6 0.8,-1.5 1.8,-2.6 3.2,-3.5 1.4,-0.9 2.9,-1.5 4.5,-1.8 1.6,-0.3 3.2,-0.5 4.8,-0.5 1.9,0 3.8,0.3 5.7,0.8 1.8,0.5 3.5,1.5 4.9,2.9 1.4,1.4 2.4,3 2.9,4.8 l -4.2,1.3 c -0.4,-1.2 -1.1,-2.3 -2,-3.3 -1,-0.9 -2.1,-1.6 -3.3,-1.9 -1.3,-0.4 -2.6,-0.5 -3.9,-0.5 -1.1,0 -2.1,0.1 -3.1,0.3 -1,0.2 -2,0.5 -2.9,1 -0.9,0.5 -1.7,1.2 -2.3,2.1 -0.6,0.9 -0.9,1.9 -0.9,3 0,1.8 0.7,3.3 2.2,4.5 1.5,1.2 3.1,2 4.9,2.2 1.8,0.2 3.6,0.5 5.4,0.8 1.8,0.3 3.4,0.9 5,1.9 1.5,1 2.7,2.3 3.6,3.9 0.9,1.6 1.3,3.3 1.3,5.1 0,1.6 -0.4,3.2 -1.2,4.6 -0.8,1.5 -1.8,2.6 -3.2,3.5 -1.4,0.9 -2.9,1.5 -4.5,1.8 -1.6,0.4 -3.2,0.5 -4.8,0.5 z" class="st0" id="d" />
    <path style="fill:#0046f4" d="m -13.7213,374.28159 36.5,19.3 v 38.6 l 36.5,19.3 v 38.6 l 36.5,19.3 v 38.6 l 36.5,-19.3 v -115.8 l -109.5,-57.9 z m -73,115.8 36.5,19.3 v 38.6 l 36.5,-19.3 v -38.6 l -36.5,-19.3 z m 73,-115.8 -36.5,19.3 36.5,19.3 v -38.6 m 73,115.8 -36.5,-19.3 v -38.6 l -36.5,-19.3 -36.5,19.3 36.5,19.3 v 38.6 l 36.5,19.3 v 38.6 l 36.5,-19.3 v -38.6 m -73,77.2 36.5,-19.3 -36.5,-19.3 z m 36.5,19.3 36.5,-19.3 -36.5,-19.3 z m 73,-38.6 -36.5,-19.3 v 38.6 z m -182.5,-135.1 36.5,19.3 v -38.6 z m 36.5,57.9 -36.5,-19.3 36.5,-19.3 z" class="st0" id="path3733" />
  </g>
</svg>