<?xml version="1.0" encoding="utf-8"?>
<svg version="1.1"
	 id="logo_1_" xmlns:cc="http://creativecommons.org/ns#" xmlns:dc="http://purl.org/dc/elements/1.1/" xmlns:inkscape="http://www.inkscape.org/namespaces/inkscape" xmlns:rdf="http://www.w3.org/1999/02/22-rdf-syntax-ns#" xmlns:sodipodi="http://sodipodi.sourceforge.net/DTD/sodipodi-0.dtd" xmlns:svg="http://www.w3.org/2000/svg"
	 xmlns="http://www.w3.org/2000/svg" xmlns:xlink="http://www.w3.org/1999/xlink" x="0px" y="0px" viewBox="0 0 595.3 841.9"
	 style="enable-background:new 0 0 595.3 841.9;" xml:space="preserve">
<style type="text/css">
	.st0{fill:#0046F4;}
</style>
<path id="s" class="st0" d="M204.2,538.4c-2,0-3.8-0.5-5.6-1.4c-1.8-0.9-3.2-2.2-4.3-3.9c-1.1-1.7-1.8-3.5-2.2-5.4
	c-0.4-1.9-0.6-3.8-0.6-5.8v-6.5c0-2,0.2-3.9,0.6-5.8c0.4-1.9,1.2-3.7,2.2-5.4c1.1-1.7,2.5-3,4.3-3.9c1.8-0.9,3.6-1.4,5.6-1.4
	c1.5,0,3,0.3,4.5,0.9c1.4,0.6,2.7,1.5,3.7,2.6c0.8,0.9,1.5,1.9,2,3v-20.7h4.5v52.9h-4.5v-5.9c-0.5,1.1-1.2,2-2,3
	c-1,1.2-2.2,2-3.7,2.6C207.3,538.1,205.8,538.4,204.2,538.4z M205.4,534.4c1.4,0,2.8-0.4,4.1-1.1c1.3-0.7,2.3-1.7,3-3
	c0.7-1.2,1.2-2.6,1.5-4s0.4-2.8,0.4-4.3v-6.5c0-1.4-0.1-2.9-0.4-4.3s-0.8-2.7-1.5-4c-0.7-1.2-1.7-2.2-3-3c-1.3-0.7-2.6-1.1-4.1-1.1
	c-1.4,0-2.8,0.3-4.1,1c-1.3,0.7-2.4,1.7-3.2,3c-0.8,1.3-1.3,2.6-1.7,4.1c-0.3,1.4-0.5,2.9-0.5,4.3v6.5c0,1.4,0.2,2.9,0.5,4.3
	c0.3,1.4,0.9,2.8,1.7,4.1c0.8,1.3,1.8,2.3,3.2,3C202.6,534,203.9,534.4,205.4,534.4z"/>
<path id="d" class="st0" d="M241.3,538.4c-1.9,0-3.8-0.3-5.7-0.8c-1.8-0.5-3.5-1.5-4.9-2.9c-1.4-1.4-2.4-3-2.9-4.8l4.2-1.3
	c0.4,1.2,1.1,2.3,2,3.3c1,0.9,2.1,1.6,3.3,1.9c1.3,0.4,2.6,0.5,3.9,0.5c1.1,0,2.1-0.1,3.1-0.3c1-0.2,2-0.5,2.9-1s1.7-1.2,2.3-2.1
	c0.6-0.9,0.9-1.9,0.9-3c0-1.8-0.7-3.3-2.2-4.5c-1.5-1.2-3.1-2-4.9-2.2c-1.8-0.2-3.6-0.5-5.4-0.8c-1.8-0.3-3.4-0.9-5-1.9
	c-1.5-1-2.7-2.3-3.6-3.9c-0.9-1.6-1.3-3.3-1.3-5.1c0-1.6,0.4-3.2,1.2-4.6c0.8-1.5,1.8-2.6,3.2-3.5c1.4-0.9,2.9-1.5,4.5-1.8
	c1.6-0.3,3.2-0.5,4.8-0.5c1.9,0,3.8,0.3,5.7,0.8c1.8,0.5,3.5,1.5,4.9,2.9c1.4,1.4,2.4,3,2.9,4.8l-4.2,1.3c-0.4-1.2-1.1-2.3-2-3.3
	c-1-0.9-2.1-1.6-3.3-1.9c-1.3-0.4-2.6-0.5-3.9-0.5c-1.1,0-2.1,0.1-3.1,0.3c-1,0.2-2,0.5-2.9,1s-1.7,1.2-2.3,2.1
	c-0.6,0.9-0.9,1.9-0.9,3c0,1.8,0.7,3.3,2.2,4.5c1.5,1.2,3.1,2,4.9,2.2c1.8,0.2,3.6,0.5,5.4,0.8c1.8,0.3,3.4,0.9,5,1.9
	c1.5,1,2.7,2.3,3.6,3.9c0.9,1.6,1.3,3.3,1.3,5.1c0,1.6-0.4,3.2-1.2,4.6c-0.8,1.5-1.8,2.6-3.2,3.5c-1.4,0.9-2.9,1.5-4.5,1.8
	C244.5,538.3,242.9,538.4,241.3,538.4z"/>
<g id="art" transform="translate(105.2213,238.2369)">
	<path id="path3733" inkscape:connector-curvature="0" class="st0" d="M155.9,78.1l36.5,19.3V136l36.5,19.3v38.6l36.5,19.3v38.6
		l36.5-19.3V116.7L192.4,58.8L155.9,78.1z M82.9,193.9l36.5,19.3v38.6l36.5-19.3v-38.6l-36.5-19.3L82.9,193.9z M155.9,78.1
		l-36.5,19.3l36.5,19.3V78.1 M228.9,193.9l-36.5-19.3V136l-36.5-19.3L119.4,136l36.5,19.3v38.6l36.5,19.3v38.6l36.5-19.3V193.9
		 M155.9,271.1l36.5-19.3l-36.5-19.3V271.1z M192.4,290.4l36.5-19.3l-36.5-19.3V290.4z M265.4,251.8l-36.5-19.3v38.6L265.4,251.8z
		 M82.9,116.7l36.5,19.3V97.4L82.9,116.7z M119.4,174.6l-36.5-19.3l36.5-19.3V174.6z"/>
</g>
</svg>
