<?xml version="1.0" encoding="UTF-8" standalone="no"?>
<!-- Created with Inkscape (http://www.inkscape.org/) -->

<svg
   xmlns:dc="http://purl.org/dc/elements/1.1/"
   xmlns:cc="http://creativecommons.org/ns#"
   xmlns:rdf="http://www.w3.org/1999/02/22-rdf-syntax-ns#"
   xmlns:svg="http://www.w3.org/2000/svg"
   xmlns="http://www.w3.org/2000/svg"
   xmlns:sodipodi="http://sodipodi.sourceforge.net/DTD/sodipodi-0.dtd"
   xmlns:inkscape="http://www.inkscape.org/namespaces/inkscape"
   width="210mm"
   height="297mm"
   viewBox="0 0 210 297"
   version="1.1"
   id="svg8"
   inkscape:version="0.92.3 (2405546, 2018-03-11)"
   sodipodi:docname="logo.svg"
   inkscape:export-filename="D:\temp\logo.png"
   inkscape:export-xdpi="96"
   inkscape:export-ydpi="96">
  <defs
     id="defs2" />
  <sodipodi:namedview
     id="base"
     pagecolor="#ffffff"
     bordercolor="#666666"
     borderopacity="1.0"
     inkscape:pageopacity="0.0"
     inkscape:pageshadow="2"
     inkscape:zoom="0.98994949"
     inkscape:cx="778.54487"
     inkscape:cy="702.37002"
     inkscape:document-units="mm"
     inkscape:current-layer="layer1"
     showgrid="false"
     inkscape:window-width="3840"
     inkscape:window-height="2093"
     inkscape:window-x="-9"
     inkscape:window-y="29"
     inkscape:window-maximized="1" />
  <metadata
     id="metadata5">
    <rdf:RDF>
      <cc:Work
         rdf:about="">
        <dc:format>image/svg+xml</dc:format>
        <dc:type
           rdf:resource="http://purl.org/dc/dcmitype/StillImage" />
        <dc:title></dc:title>
      </cc:Work>
    </rdf:RDF>
  </metadata>
  <g
     inkscape:label="Layer 1"
     inkscape:groupmode="layer"
     id="layer1">
    <g
       id="g3749"
       transform="translate(-12.172619,-111.45833)">
      <g
         id="g3721"
         inkscape:label="logo_2016"
         transform="matrix(0.35277777,0,0,-0.35277777,67.172614,307.10194)">
        <text
           transform="matrix(1,0,0,-1,31.5532,26.73)"
           style="font-variant:normal;font-weight:normal;font-stretch:normal;font-size:60px;font-family:'HelveticaNeueLT Std';-inkscape-font-specification:HelveticaNeueLTStd-Roman;writing-mode:lr-tb;fill:#0046f4;fill-opacity:1;fill-rule:nonzero;stroke:none"
           id="text3725">
          <tspan
             x="0 35.580002"
             y="0"
             sodipodi:role="line"
             id="tspan3723"
             style="-inkscape-font-specification:'Source Sans Pro';font-family:'Source Sans Pro';font-weight:normal;font-style:normal;font-stretch:normal;font-variant:normal">ds</tspan>
        </text>
        <text
           transform="matrix(1,0,0,-1,31.5532,9.9302)"
           style="font-variant:normal;font-stretch:normal;font-size:14px;font-family:'Segoe UI';-inkscape-font-specification:'Segoe UI';writing-mode:lr-tb;fill:#0046f4;fill-opacity:1;fill-rule:nonzero;stroke:none;font-weight:normal;font-style:normal;"
           id="text3729">
          <tspan
             x="0 10.038 18.34 25.606001 34.608002 39.200001 48.720001 56.686001 66.206001 76.314003 86.870003 94.835999 104.944 114.464 123.004 132.524 137.116 145.01199 156.086 165.606 170.198 181.272 190.274 202.3 210.84"
             y="0"
             sodipodi:role="line"
             id="tspan3727"
             style="-inkscape-font-specification:'Source Sans Pro';font-family:'Source Sans Pro';font-weight:normal;font-style:normal;font-stretch:normal;font-variant:normal">DATA STRUCTURES FOR GAMES</tspan>
        </text>
        <g
           id="g3731"
           transform="translate(105.2213,238.2369)">
          <path
             d="m 0,0 36.511,-19.301 v -38.603 l 36.511,-19.303 v -38.603 l 36.513,-19.301 v -38.601 l 36.51,19.3 V -38.604 L 36.511,19.302 Z m -73.023,-115.808 36.511,-19.301 V -173.71 L 0,-154.41 v 38.602 l -36.512,19.302 z M 0,0 -36.512,-19.301 0,-38.602 V 0 m 73.022,-115.81 -36.511,19.304 v 38.602 L 0,-38.602 -36.512,-57.904 0,-77.205 v -38.603 l 36.511,-19.301 v -38.601 l 36.511,19.3 v 38.6 M 0,-193.011 36.511,-173.71 0,-154.41 Z m 36.511,-19.305 36.511,19.305 -36.511,19.301 z m 73.024,38.604 -36.513,19.3 v -38.601 z m -182.558,135.11 36.511,-19.302 v 38.603 z m 36.511,-57.904 -36.511,19.301 36.511,19.301 z"
             style="fill:#0046f4;fill-opacity:1;fill-rule:nonzero;stroke:none"
             id="path3733"
             inkscape:connector-curvature="0" />
        </g>
      </g>
    </g>
    <text
       xml:space="preserve"
       style="font-style:normal;font-weight:normal;font-size:10.58333302px;line-height:1.25;font-family:sans-serif;letter-spacing:0px;word-spacing:0px;fill:#000000;fill-opacity:1;stroke:none;stroke-width:0.26458332"
       x="46.491074"
       y="199.48213"
       id="text3753"><tspan
         sodipodi:role="line"
         id="tspan3751"
         x="46.491074"
         y="208.8459"
         style="stroke-width:0.26458332"></tspan></text>
  </g>
</svg>
